<svg data-v-fde0c5aa="" xmlns="http://www.w3.org/2000/svg" viewBox="0 0 300 300" class="iconLeft"><!----><defs data-v-fde0c5aa=""><!----></defs><rect data-v-fde0c5aa="" fill="transparent" x="0" y="0" width="300px" height="300px" class="logo-background-square"></rect><defs data-v-fde0c5aa=""><!----></defs><g data-v-fde0c5aa="" id="b5c11fe4-edd1-4cd4-a7a5-1b0b5fda4fa5" fill="#000000" transform="matrix(3.96020697251374,0,0,3.96020697251374,120.24429715327032,116.53625089342151)"><path d="M1.48 6.54C1.48 9.04 5.74 9.10 5.74 11.51C5.74 12.85 4.40 13.55 3.14 13.55C1.68 13.55 0.99 12.63 0.99 11.59C0.99 10.95 1.26 10.26 1.76 9.72C0.99 9.72-0.03 10.14-0.03 11.59C-0.03 13.29 1.37 14.10 2.90 14.10C4.62 14.10 6.55 13.05 6.55 11.12C6.55 8.26 2.37 8.30 2.37 6.22C2.37 5.05 3.68 3.14 5.45 3.14C6.05 3.14 6.23 3.36 6.23 3.74C6.23 4.55 5.40 5.89 5.40 6.68C5.40 6.99 5.53 7.21 5.87 7.28C6.31 6.57 6.94 5.22 6.94 4.20C6.94 3.40 6.57 2.80 5.47 2.80C3.04 2.80 1.48 4.98 1.48 6.54ZM11.28 13.19C11.47 12.81 11.66 12.33 11.96 11.89C12.82 10.56 13.33 9.80 13.79 9.80C14 9.80 14.20 9.94 14.20 10.30C14.20 10.85 13.78 11.61 13.78 12.29C13.78 12.85 14.06 13.31 14.71 13.31C15.83 13.31 16.69 11.98 17.14 10.81L16.97 10.61C16.53 11.56 15.86 12.82 15.09 12.82C14.77 12.82 14.67 12.60 14.67 12.35C14.67 11.76 15.19 10.75 15.19 10.01C15.19 9.53 14.98 9.11 14.39 9.11C13.44 9.11 12.66 10.21 12.07 11.27C12.22 10.89 12.50 10.01 12.50 9.30C12.50 8.72 12.32 8.23 11.75 8.23C10.74 8.23 9.55 9.70 8.79 10.89C9.00 10.19 9.16 9.55 9.16 9.30C9.16 9.07 9.03 8.93 8.78 8.93C8.51 8.93 8.25 9.10 8.13 9.23C8.12 10.46 7.17 12.75 7.17 12.96C7.17 13.10 7.66 13.26 7.92 13.26C8.61 11.37 10.29 9.16 11.10 9.16C11.35 9.16 11.45 9.37 11.45 9.69C11.45 10.67 10.57 12.66 10.57 12.91C10.57 13.10 11.06 13.19 11.28 13.19ZM20.94 8.69C20.94 8.01 20.51 7.84 20.08 7.84C18.42 7.84 16.52 10.21 16.52 11.87C16.52 12.78 17.09 13.50 18.23 13.50C19.61 13.50 21.07 12.42 21.83 10.74L21.66 10.61C20.96 11.96 19.71 13.09 18.52 13.09C17.65 13.09 17.42 12.49 17.42 11.91C17.42 11.77 17.43 11.59 17.47 11.41C19.07 11.26 20.94 10.12 20.94 8.69ZM20.03 8.27C20.27 8.27 20.33 8.39 20.33 8.60C20.33 9.80 18.54 10.79 17.54 11.14C17.92 9.81 19.14 8.27 20.03 8.27ZM25.62 8.69C25.62 8.01 25.19 7.84 24.75 7.84C23.10 7.84 21.20 10.21 21.20 11.87C21.20 12.78 21.77 13.50 22.90 13.50C24.29 13.50 25.75 12.42 26.50 10.74L26.33 10.61C25.63 11.96 24.39 13.09 23.20 13.09C22.33 13.09 22.09 12.49 22.09 11.91C22.09 11.77 22.11 11.59 22.15 11.41C23.74 11.26 25.62 10.12 25.62 8.69ZM24.71 8.27C24.95 8.27 25.00 8.39 25.00 8.60C25.00 9.80 23.21 10.79 22.22 11.14C22.60 9.81 23.81 8.27 24.71 8.27ZM30.32 8.41C29.62 8.48 28.94 8.50 28.32 8.50L27.80 8.50C28.62 6.78 29.67 5.32 29.67 4.83C29.67 4.63 29.51 4.52 29.37 4.52C28.80 4.52 27.72 6.44 26.94 8.46C26.67 8.44 26.46 8.41 26.32 8.40L26.32 8.65C26.47 8.71 26.64 8.74 26.82 8.76C26.35 10.04 26.01 11.31 26.01 12.14C26.01 13.06 26.45 13.52 27.26 13.52C28.57 13.52 29.83 12.33 30.51 10.75L30.32 10.61C29.61 12.08 28.63 13.01 27.66 13.01C27.10 13.01 26.88 12.70 26.88 11.89C26.88 10.89 27.22 9.83 27.65 8.83L27.86 8.83C28.49 8.83 29.30 8.78 30.32 8.67ZM29.79 11.76C29.79 12.60 30.23 13.59 31.54 13.59C32.34 13.59 33.04 13.23 33.33 12.43C34.17 12.31 34.94 11.79 35.29 10.77L35.17 10.63C34.62 11.68 34.05 12.10 33.40 12.21C33.46 12.00 33.49 11.77 33.49 11.52C33.49 10.23 32.76 9.07 32.76 8.15C32.76 7.83 32.84 7.63 32.84 7.53C32.84 7.43 32.77 7.35 32.62 7.35C32.35 7.35 32.07 7.62 32.07 8.30L32.07 8.47C31.72 9.21 31.25 9.88 30.69 10.50C30.53 10.67 29.79 10.65 29.79 11.76ZM32.58 11.54C32.58 11.82 32.55 12.01 32.52 12.19C31.67 12.01 31.07 11.42 30.79 10.82C31.21 10.40 31.71 9.72 32.14 9.00C32.28 9.77 32.58 10.65 32.58 11.54ZM31.57 13.10C30.84 13.10 30.42 12.42 30.42 11.75C30.42 11.45 30.51 11.27 30.73 11.26C31.02 11.73 31.67 12.26 32.45 12.42C32.24 13.03 31.79 13.10 31.57 13.10Z"></path></g><defs data-v-fde0c5aa=""><linearGradient data-v-fde0c5aa="" gradientTransform="rotate(25)" id="96f6b6bc-0b67-47bd-a5eb-012adb39b997" x1="0%" y1="0%" x2="100%" y2="0%"><stop data-v-fde0c5aa="" offset="0%" stop-color="#050922" stop-opacity="1"></stop><stop data-v-fde0c5aa="" offset="100%" stop-color="#6EE6C7" stop-opacity="1"></stop></linearGradient></defs><g data-v-fde0c5aa="" id="9c4eb505-788b-4a74-981c-6d128ca407bf" stroke="none" fill="url(#96f6b6bc-0b67-47bd-a5eb-012adb39b997)" transform="matrix(0.8029365091454288,0,0,0.8029365091454288,198.01790745018815,-56.354664472616946)"><switch><g><path d="M-155 298.8c11.2 0 21.7-4.3 29.6-12.2 7.9-7.9 12.2-18.4 12.2-29.6 0-11.2-4.3-21.7-12.2-29.6-7.9-7.9-18.4-12.2-29.6-12.2s-21.7 4.3-29.6 12.2c-7.9 7.9-12.2 18.4-12.2 29.6 0 11.2 4.3 21.7 12.2 29.6 7.9 7.9 18.4 12.2 29.6 12.2zm2.4-7.1c-.8.1-1.6.1-2.4.1-1.1 0-2.2-.1-3.3-.2-3.6-5.6-6.3-11.6-7.9-17.9h17.7c.6 1.5 1.7 2.9 3 3.8-1.7 5-4.1 9.7-7.1 14.2zm9.5-2c1.9-3.5 3.4-7 4.6-10.7 2.9-.6 5.2-2.6 6.3-5.3h7.7c-4 7.3-10.7 13-18.6 16zm22.8-32.7c0 3.3-.5 6.5-1.3 9.6h-10.8c-.6-1.3-1.6-2.5-2.8-3.4.2-2.2.3-4.4.3-6.6 0-3.1-.2-6.2-.6-9.2h13.8c1 3 1.4 6.3 1.4 9.6zm-4.2-16.7h-12.2c-1.3-5.5-3.2-10.7-5.8-15.7 7.6 2.9 14 8.6 18 15.7zm-17.4 16.3c0 1.7-.1 3.4-.2 5.1-2.8.6-5.1 2.4-6.2 4.9h-19.3c-.4-3-.7-6.1-.7-9.1 0-1.9.1-3.8.3-5.7 2.6-.5 4.7-2.2 6-4.4h19.5c.4 3 .6 6.1.6 9.2zm-15.7-34.2c.9-.1 1.8-.1 2.6-.1 1 0 2 0 3 .1 3.6 5.6 6.3 11.6 7.9 17.9h-17.4c-.6-1.7-1.7-3.2-3.1-4.3 1.8-4.8 4.1-9.3 7-13.6zm-9.5 2c-1.7 3.2-3.2 6.6-4.4 10-3.1.6-5.6 2.9-6.6 5.8h-7.3c3.9-7.1 10.4-12.8 18.3-15.8zm-22.6 32.6c0-3.3.5-6.6 1.4-9.6h10.9c.6 1.1 1.5 2.1 2.5 2.9-.2 2.4-.4 4.8-.4 7.2 0 3.1.2 6.1.6 9.1h-13.6c-1-3.1-1.4-6.3-1.4-9.6zm16.2 16.6c1.3 5.4 3.2 10.7 5.8 15.7-7.6-3-13.9-8.6-17.8-15.7h12z"></path></g></switch></g><!----></svg>